<svg xmlns="http://www.w3.org/2000/svg" xmlns:xlink="http://www.w3.org/1999/xlink" width="336" zoomAndPan="magnify" viewBox="0 0 252 143.999998" height="192" preserveAspectRatio="xMidYMid meet" version="1.0"><defs><g/></defs><g fill="#000000" fill-opacity="1"><g transform="translate(22.746095, 73.375048)"><g><path d="M 34.265625 -38.328125 C 34.648438 -38.328125 34.976562 -38.1875 35.25 -37.90625 C 35.53125 -37.625 35.671875 -37.242188 35.671875 -36.765625 C 35.671875 -35.859375 35.367188 -34.976562 34.765625 -34.125 C 34.160156 -33.28125 33.34375 -32.585938 32.3125 -32.046875 C 31.289062 -31.515625 30.15625 -31.25 28.90625 -31.25 C 27.90625 -31.25 26.859375 -31.316406 25.765625 -31.453125 C 24.671875 -31.597656 23.570312 -31.753906 22.46875 -31.921875 C 22.289062 -29.460938 22.125 -27.113281 21.96875 -24.875 C 21.8125 -22.644531 21.679688 -20.695312 21.578125 -19.03125 C 21.472656 -17.363281 21.382812 -16.113281 21.3125 -15.28125 C 21.007812 -9.976562 20.117188 -6.050781 18.640625 -3.5 C 17.171875 -0.957031 15.082031 0.3125 12.375 0.3125 C 10.75 0.3125 9.335938 -0.09375 8.140625 -0.90625 C 6.941406 -1.71875 6.097656 -2.679688 5.609375 -3.796875 C 5.367188 -4.316406 5.25 -4.816406 5.25 -5.296875 C 5.25 -5.890625 5.40625 -6.347656 5.71875 -6.671875 C 6.03125 -7.003906 6.394531 -7.171875 6.8125 -7.171875 C 7.125 -7.171875 7.441406 -7.054688 7.765625 -6.828125 C 8.097656 -6.609375 8.367188 -6.253906 8.578125 -5.765625 C 8.890625 -5.003906 9.398438 -4.347656 10.109375 -3.796875 C 10.828125 -3.242188 11.617188 -2.96875 12.484375 -2.96875 C 13.972656 -2.96875 15.132812 -3.972656 15.96875 -5.984375 C 16.800781 -7.992188 17.375 -11.195312 17.6875 -15.59375 L 18.875 -32.609375 C 17.726562 -32.847656 16.660156 -33.046875 15.671875 -33.203125 C 14.691406 -33.359375 13.816406 -33.4375 13.046875 -33.4375 C 11.660156 -33.4375 10.523438 -33.097656 9.640625 -32.421875 C 8.753906 -31.742188 8.3125 -30.851562 8.3125 -29.75 C 8.3125 -28.945312 8.519531 -28.234375 8.9375 -27.609375 C 9.351562 -26.984375 10.066406 -26.378906 11.078125 -25.796875 C 11.804688 -25.378906 12.171875 -24.859375 12.171875 -24.234375 C 12.171875 -23.890625 12.03125 -23.5625 11.75 -23.25 C 11.476562 -22.9375 11.046875 -22.78125 10.453125 -22.78125 C 10.109375 -22.78125 9.71875 -22.863281 9.28125 -23.03125 C 8.84375 -23.207031 8.421875 -23.414062 8.015625 -23.65625 C 7.078125 -24.175781 6.285156 -24.960938 5.640625 -26.015625 C 5.003906 -27.078125 4.6875 -28.300781 4.6875 -29.6875 C 4.6875 -31.84375 5.445312 -33.550781 6.96875 -34.8125 C 8.488281 -36.082031 10.515625 -36.71875 13.046875 -36.71875 C 14.609375 -36.71875 16.28125 -36.535156 18.0625 -36.171875 C 19.851562 -35.804688 21.628906 -35.441406 23.390625 -35.078125 C 25.160156 -34.710938 26.773438 -34.53125 28.234375 -34.53125 C 29.453125 -34.53125 30.351562 -34.71875 30.9375 -35.09375 C 31.53125 -35.476562 31.972656 -35.921875 32.265625 -36.421875 C 32.554688 -36.929688 32.832031 -37.375 33.09375 -37.75 C 33.351562 -38.132812 33.742188 -38.328125 34.265625 -38.328125 Z M 34.265625 -38.328125 "/></g></g></g><g fill="#000000" fill-opacity="1"><g transform="translate(54.255705, 73.375048)"><g><path d="M 24.796875 -12.109375 C 25.109375 -12.804688 25.546875 -13.15625 26.109375 -13.15625 C 26.453125 -13.15625 26.757812 -13.023438 27.03125 -12.765625 C 27.3125 -12.503906 27.453125 -12.164062 27.453125 -11.75 C 27.453125 -11.539062 27.398438 -11.300781 27.296875 -11.03125 C 26.222656 -8.144531 25.164062 -5.90625 24.125 -4.3125 C 23.082031 -2.71875 22.050781 -1.609375 21.03125 -0.984375 C 20.007812 -0.359375 18.976562 -0.046875 17.9375 -0.046875 C 16.445312 -0.046875 15.257812 -0.488281 14.375 -1.375 C 13.488281 -2.257812 13.046875 -3.429688 13.046875 -4.890625 C 13.046875 -5.992188 13.265625 -7.226562 13.703125 -8.59375 C 14.140625 -9.96875 14.5625 -11.332031 14.96875 -12.6875 C 15.382812 -14.039062 15.59375 -15.1875 15.59375 -16.125 C 15.59375 -17.71875 14.816406 -18.515625 13.265625 -18.515625 C 12.328125 -18.515625 11.25 -18.046875 10.03125 -17.109375 C 8.820312 -16.171875 7.765625 -14.816406 6.859375 -13.046875 C 5.960938 -11.285156 5.441406 -9.140625 5.296875 -6.609375 C 5.335938 -5.910156 5.382812 -5.1875 5.4375 -4.4375 C 5.488281 -3.695312 5.53125 -2.925781 5.5625 -2.125 C 5.632812 -1.46875 5.476562 -0.945312 5.09375 -0.5625 C 4.71875 -0.1875 4.300781 0 3.84375 0 C 3.425781 0 3.046875 -0.171875 2.703125 -0.515625 C 2.359375 -0.867188 2.148438 -1.375 2.078125 -2.03125 C 1.972656 -3.59375 1.898438 -5.117188 1.859375 -6.609375 C 1.828125 -8.097656 1.8125 -9.570312 1.8125 -11.03125 C 1.8125 -11.507812 1.8125 -11.988281 1.8125 -12.46875 C 1.8125 -12.957031 1.8125 -13.429688 1.8125 -13.890625 C 1.8125 -15.585938 1.863281 -17.1875 1.96875 -18.6875 C 2.070312 -20.195312 2.210938 -21.613281 2.390625 -22.9375 L 1.765625 -23.09375 C 1.285156 -23.226562 0.929688 -23.453125 0.703125 -23.765625 C 0.472656 -24.078125 0.359375 -24.40625 0.359375 -24.75 C 0.359375 -25.132812 0.476562 -25.472656 0.71875 -25.765625 C 0.96875 -26.054688 1.316406 -26.203125 1.765625 -26.203125 C 1.941406 -26.203125 2.113281 -26.1875 2.28125 -26.15625 C 2.457031 -26.125 2.6875 -26.070312 2.96875 -26 C 3.757812 -29.53125 4.925781 -32.222656 6.46875 -34.078125 C 8.007812 -35.941406 9.875 -36.875 12.0625 -36.875 C 13.789062 -36.875 15.203125 -36.328125 16.296875 -35.234375 C 17.390625 -34.140625 17.9375 -32.757812 17.9375 -31.09375 C 17.9375 -29.632812 17.476562 -28.242188 16.5625 -26.921875 C 15.644531 -25.609375 14.328125 -24.535156 12.609375 -23.703125 C 10.890625 -22.878906 8.816406 -22.46875 6.390625 -22.46875 L 5.828125 -22.46875 C 5.679688 -21.425781 5.566406 -20.320312 5.484375 -19.15625 C 5.398438 -18 5.320312 -16.757812 5.25 -15.4375 C 6.289062 -17.445312 7.566406 -18.972656 9.078125 -20.015625 C 10.585938 -21.054688 12.117188 -21.578125 13.671875 -21.578125 C 15.234375 -21.578125 16.515625 -21.109375 17.515625 -20.171875 C 18.523438 -19.234375 19.03125 -18.019531 19.03125 -16.53125 C 19.03125 -15.664062 18.898438 -14.6875 18.640625 -13.59375 C 18.378906 -12.5 18.082031 -11.40625 17.75 -10.3125 C 17.425781 -9.226562 17.132812 -8.21875 16.875 -7.28125 C 16.613281 -6.34375 16.484375 -5.597656 16.484375 -5.046875 C 16.484375 -3.867188 17.070312 -3.28125 18.25 -3.28125 C 19.1875 -3.28125 20.191406 -3.960938 21.265625 -5.328125 C 22.335938 -6.703125 23.515625 -8.960938 24.796875 -12.109375 Z M 11.90625 -33.640625 C 9.34375 -33.640625 7.488281 -30.953125 6.34375 -25.578125 L 6.921875 -25.578125 C 8.578125 -25.578125 9.96875 -25.847656 11.09375 -26.390625 C 12.226562 -26.929688 13.085938 -27.613281 13.671875 -28.4375 C 14.265625 -29.269531 14.5625 -30.117188 14.5625 -30.984375 C 14.5625 -31.785156 14.316406 -32.425781 13.828125 -32.90625 C 13.347656 -33.394531 12.707031 -33.640625 11.90625 -33.640625 Z M 11.90625 -33.640625 "/></g></g></g><g fill="#000000" fill-opacity="1"><g transform="translate(77.341951, 73.375048)"><g><path d="M 25.640625 -12.109375 C 25.953125 -12.804688 26.398438 -13.15625 26.984375 -13.15625 C 27.335938 -13.15625 27.640625 -13.023438 27.890625 -12.765625 C 28.148438 -12.503906 28.28125 -12.164062 28.28125 -11.75 C 28.28125 -11.539062 28.226562 -11.300781 28.125 -11.03125 C 26.707031 -7.144531 25.363281 -4.300781 24.09375 -2.5 C 22.832031 -0.695312 21.441406 0.203125 19.921875 0.203125 C 17.492188 0.203125 15.894531 -1.21875 15.125 -4.0625 C 14.09375 -2.457031 13.003906 -1.34375 11.859375 -0.71875 C 10.710938 -0.101562 9.550781 0.203125 8.375 0.203125 C 6.363281 0.203125 4.671875 -0.554688 3.296875 -2.078125 C 1.929688 -3.609375 1.25 -5.757812 1.25 -8.53125 C 1.25 -10.957031 1.722656 -13.078125 2.671875 -14.890625 C 3.628906 -16.710938 4.851562 -18.132812 6.34375 -19.15625 C 7.832031 -20.1875 9.394531 -20.703125 11.03125 -20.703125 C 11.71875 -20.703125 12.453125 -20.578125 13.234375 -20.328125 C 14.015625 -20.085938 14.734375 -19.722656 15.390625 -19.234375 C 15.804688 -20.378906 16.445312 -20.953125 17.3125 -20.953125 C 17.757812 -20.953125 18.140625 -20.796875 18.453125 -20.484375 C 18.765625 -20.171875 18.921875 -19.738281 18.921875 -19.1875 C 18.921875 -18.84375 18.859375 -18.007812 18.734375 -16.6875 C 18.617188 -15.375 18.5 -13.84375 18.375 -12.09375 C 18.257812 -10.34375 18.203125 -8.617188 18.203125 -6.921875 C 18.203125 -5.429688 18.382812 -4.40625 18.75 -3.84375 C 19.113281 -3.289062 19.570312 -3.015625 20.125 -3.015625 C 20.8125 -3.015625 21.585938 -3.757812 22.453125 -5.25 C 23.328125 -6.738281 24.390625 -9.023438 25.640625 -12.109375 Z M 8.890625 -3.015625 C 10.722656 -3.015625 12.238281 -4.164062 13.4375 -6.46875 C 14.632812 -8.78125 15.195312 -11.976562 15.125 -16.0625 C 14.882812 -16.445312 14.4375 -16.800781 13.78125 -17.125 C 13.125 -17.457031 12.410156 -17.625 11.640625 -17.625 C 10.503906 -17.625 9.394531 -17.25 8.3125 -16.5 C 7.238281 -15.757812 6.363281 -14.722656 5.6875 -13.390625 C 5.019531 -12.054688 4.6875 -10.488281 4.6875 -8.6875 C 4.6875 -6.738281 5.082031 -5.304688 5.875 -4.390625 C 6.675781 -3.472656 7.679688 -3.015625 8.890625 -3.015625 Z M 8.890625 -3.015625 "/></g></g></g><g fill="#000000" fill-opacity="1"><g transform="translate(101.260135, 73.375048)"><g><path d="M 23.296875 -12.109375 C 23.609375 -12.804688 24.054688 -13.15625 24.640625 -13.15625 C 24.992188 -13.15625 25.300781 -13.023438 25.5625 -12.765625 C 25.820312 -12.503906 25.953125 -12.164062 25.953125 -11.75 C 25.953125 -11.539062 25.898438 -11.300781 25.796875 -11.03125 C 24.679688 -8.1875 23.671875 -5.960938 22.765625 -4.359375 C 21.867188 -2.765625 21.003906 -1.640625 20.171875 -0.984375 C 19.335938 -0.328125 18.421875 0 17.421875 0 C 16.171875 0 15.15625 -0.429688 14.375 -1.296875 C 13.59375 -2.160156 13.203125 -3.492188 13.203125 -5.296875 C 13.203125 -6.378906 13.269531 -7.5625 13.40625 -8.84375 C 13.550781 -10.125 13.691406 -11.328125 13.828125 -12.453125 C 13.972656 -13.578125 14.046875 -14.4375 14.046875 -15.03125 C 14.046875 -16.65625 13.316406 -17.46875 11.859375 -17.46875 C 10.921875 -17.46875 9.957031 -17.035156 8.96875 -16.171875 C 7.976562 -15.304688 7.109375 -14.128906 6.359375 -12.640625 C 5.617188 -11.148438 5.128906 -9.429688 4.890625 -7.484375 C 4.785156 -5.472656 4.734375 -3.53125 4.734375 -1.65625 C 4.734375 -1.101562 4.550781 -0.679688 4.1875 -0.390625 C 3.820312 -0.0976562 3.414062 0.046875 2.96875 0.046875 C 2.550781 0.046875 2.164062 -0.0976562 1.8125 -0.390625 C 1.46875 -0.679688 1.296875 -1.101562 1.296875 -1.65625 C 1.296875 -2.695312 1.332031 -3.972656 1.40625 -5.484375 C 1.476562 -6.992188 1.554688 -8.578125 1.640625 -10.234375 C 1.722656 -11.898438 1.816406 -13.488281 1.921875 -15 C 2.023438 -16.507812 2.128906 -17.785156 2.234375 -18.828125 C 2.304688 -19.410156 2.523438 -19.847656 2.890625 -20.140625 C 3.253906 -20.441406 3.644531 -20.59375 4.0625 -20.59375 C 4.476562 -20.59375 4.847656 -20.453125 5.171875 -20.171875 C 5.503906 -19.898438 5.671875 -19.46875 5.671875 -18.875 C 5.671875 -18.53125 5.648438 -18.125 5.609375 -17.65625 C 5.578125 -17.1875 5.523438 -16.675781 5.453125 -16.125 C 7.460938 -19.132812 9.875 -20.640625 12.6875 -20.640625 C 14.101562 -20.640625 15.253906 -20.195312 16.140625 -19.3125 C 17.023438 -18.425781 17.46875 -17.273438 17.46875 -15.859375 C 17.46875 -15.054688 17.398438 -14.015625 17.265625 -12.734375 C 17.128906 -11.453125 16.988281 -10.117188 16.84375 -8.734375 C 16.707031 -7.347656 16.640625 -6.097656 16.640625 -4.984375 C 16.640625 -3.804688 17.070312 -3.21875 17.9375 -3.21875 C 18.632812 -3.21875 19.367188 -3.910156 20.140625 -5.296875 C 20.921875 -6.691406 21.972656 -8.960938 23.296875 -12.109375 Z M 23.296875 -12.109375 "/></g></g></g><g fill="#000000" fill-opacity="1"><g transform="translate(122.838496, 73.375048)"><g><path d="M 22.984375 -12.109375 C 23.296875 -12.878906 23.765625 -13.265625 24.390625 -13.265625 C 24.703125 -13.265625 24.988281 -13.140625 25.25 -12.890625 C 25.507812 -12.648438 25.640625 -12.304688 25.640625 -11.859375 C 25.640625 -11.609375 25.585938 -11.332031 25.484375 -11.03125 C 24.410156 -8.144531 23.332031 -5.882812 22.25 -4.25 C 21.175781 -2.625 20.09375 -1.484375 19 -0.828125 C 17.914062 -0.171875 16.78125 0.15625 15.59375 0.15625 C 14.351562 0.15625 13.1875 -0.1875 12.09375 -0.875 C 11 -1.570312 10.113281 -2.519531 9.4375 -3.71875 C 8.757812 -4.914062 8.421875 -6.273438 8.421875 -7.796875 C 8.421875 -8.597656 8.601562 -9.195312 8.96875 -9.59375 C 9.332031 -9.988281 10.050781 -10.46875 11.125 -11.03125 C 12.476562 -11.75 13.484375 -12.421875 14.140625 -13.046875 C 14.796875 -13.671875 15.125 -14.414062 15.125 -15.28125 C 15.125 -15.945312 14.890625 -16.476562 14.421875 -16.875 C 13.960938 -17.269531 13.28125 -17.46875 12.375 -17.46875 C 11.820312 -17.46875 11.132812 -17.285156 10.3125 -16.921875 C 9.5 -16.554688 8.703125 -15.96875 7.921875 -15.15625 C 7.148438 -14.34375 6.503906 -13.25 5.984375 -11.875 C 5.460938 -10.507812 5.203125 -8.835938 5.203125 -6.859375 C 5.234375 -6.097656 5.273438 -5.3125 5.328125 -4.5 C 5.378906 -3.6875 5.421875 -2.84375 5.453125 -1.96875 C 5.523438 -1.3125 5.378906 -0.789062 5.015625 -0.40625 C 4.648438 -0.03125 4.226562 0.15625 3.75 0.15625 C 3.332031 0.15625 2.945312 -0.00390625 2.59375 -0.328125 C 2.25 -0.660156 2.039062 -1.175781 1.96875 -1.875 C 1.863281 -3.4375 1.796875 -4.976562 1.765625 -6.5 C 1.734375 -8.019531 1.71875 -9.507812 1.71875 -10.96875 C 1.71875 -11.457031 1.71875 -11.953125 1.71875 -12.453125 C 1.71875 -12.953125 1.71875 -13.429688 1.71875 -13.890625 C 1.71875 -15.546875 1.769531 -17.117188 1.875 -18.609375 C 1.976562 -20.109375 2.113281 -21.515625 2.28125 -22.828125 L 1.65625 -22.984375 C 1.175781 -23.117188 0.820312 -23.34375 0.59375 -23.65625 C 0.375 -23.96875 0.265625 -24.296875 0.265625 -24.640625 C 0.265625 -25.023438 0.382812 -25.375 0.625 -25.6875 C 0.863281 -26 1.207031 -26.15625 1.65625 -26.15625 C 1.832031 -26.15625 2.015625 -26.132812 2.203125 -26.09375 C 2.398438 -26.0625 2.617188 -26.015625 2.859375 -25.953125 C 3.660156 -29.515625 4.847656 -32.222656 6.421875 -34.078125 C 7.992188 -35.941406 9.835938 -36.875 11.953125 -36.875 C 13.691406 -36.875 15.109375 -36.328125 16.203125 -35.234375 C 17.296875 -34.140625 17.84375 -32.757812 17.84375 -31.09375 C 17.84375 -29.632812 17.378906 -28.242188 16.453125 -26.921875 C 15.535156 -25.609375 14.21875 -24.535156 12.5 -23.703125 C 10.789062 -22.878906 8.722656 -22.46875 6.296875 -22.46875 L 5.71875 -22.46875 C 5.582031 -21.5 5.46875 -20.472656 5.375 -19.390625 C 5.289062 -18.316406 5.234375 -17.175781 5.203125 -15.96875 C 6.242188 -17.5625 7.472656 -18.738281 8.890625 -19.5 C 10.316406 -20.257812 11.671875 -20.640625 12.953125 -20.640625 C 14.679688 -20.640625 16.046875 -20.144531 17.046875 -19.15625 C 18.054688 -18.175781 18.5625 -16.921875 18.5625 -15.390625 C 18.5625 -14.179688 18.328125 -13.1875 17.859375 -12.40625 C 17.390625 -11.625 16.804688 -10.976562 16.109375 -10.46875 C 15.421875 -9.96875 14.710938 -9.492188 13.984375 -9.046875 C 13.296875 -8.628906 12.796875 -8.300781 12.484375 -8.0625 C 12.171875 -7.820312 12.015625 -7.492188 12.015625 -7.078125 C 12.015625 -6.035156 12.421875 -5.101562 13.234375 -4.28125 C 14.046875 -3.46875 14.921875 -3.0625 15.859375 -3.0625 C 17.078125 -3.0625 18.25 -3.769531 19.375 -5.1875 C 20.5 -6.613281 21.703125 -8.921875 22.984375 -12.109375 Z M 11.796875 -33.640625 C 10.617188 -33.640625 9.550781 -32.976562 8.59375 -31.65625 C 7.644531 -30.34375 6.878906 -28.335938 6.296875 -25.640625 L 6.8125 -25.640625 C 8.476562 -25.640625 9.875 -25.90625 11 -26.4375 C 12.125 -26.976562 12.976562 -27.65625 13.5625 -28.46875 C 14.15625 -29.28125 14.453125 -30.117188 14.453125 -30.984375 C 14.453125 -31.785156 14.207031 -32.425781 13.71875 -32.90625 C 13.238281 -33.394531 12.597656 -33.640625 11.796875 -33.640625 Z M 11.796875 -33.640625 "/></g></g></g><g fill="#000000" fill-opacity="1"><g transform="translate(144.104879, 73.375048)"><g/></g></g><g fill="#000000" fill-opacity="1"><g transform="translate(154.244103, 73.375048)"><g><path d="M 23.03125 -12.109375 C 23.34375 -12.804688 23.78125 -13.15625 24.34375 -13.15625 C 24.6875 -13.15625 24.992188 -13.023438 25.265625 -12.765625 C 25.546875 -12.503906 25.6875 -12.148438 25.6875 -11.703125 C 25.6875 -11.523438 25.632812 -11.300781 25.53125 -11.03125 C 24.59375 -8.5 23.40625 -6.085938 21.96875 -3.796875 C 20.53125 -1.503906 18.789062 0.414062 16.75 1.96875 C 16.707031 2.144531 16.6875 2.3125 16.6875 2.46875 C 16.6875 2.625 16.671875 2.789062 16.640625 2.96875 C 16.328125 5.945312 15.585938 8.363281 14.421875 10.21875 C 13.265625 12.070312 11.644531 13 9.5625 13 C 8.070312 13 6.875 12.570312 5.96875 11.71875 C 5.070312 10.875 4.625 9.863281 4.625 8.6875 C 4.625 6.8125 5.40625 5.210938 6.96875 3.890625 C 8.53125 2.578125 10.695312 1.226562 13.46875 -0.15625 C 13.5 -0.570312 13.53125 -0.992188 13.5625 -1.421875 C 13.601562 -1.859375 13.640625 -2.300781 13.671875 -2.75 C 13.710938 -3.03125 13.738281 -3.304688 13.75 -3.578125 C 13.769531 -3.859375 13.78125 -4.15625 13.78125 -4.46875 C 12.738281 -2.90625 11.609375 -1.757812 10.390625 -1.03125 C 9.179688 -0.3125 8.023438 0.046875 6.921875 0.046875 C 5.222656 0.046875 3.828125 -0.488281 2.734375 -1.5625 C 1.640625 -2.632812 1.09375 -4.054688 1.09375 -5.828125 C 1.09375 -7.179688 1.195312 -8.550781 1.40625 -9.9375 C 1.613281 -11.320312 1.8125 -12.628906 2 -13.859375 C 2.1875 -15.085938 2.28125 -16.117188 2.28125 -16.953125 C 2.28125 -17.609375 2.160156 -18.070312 1.921875 -18.34375 C 1.679688 -18.625 1.429688 -18.867188 1.171875 -19.078125 C 0.910156 -19.285156 0.78125 -19.617188 0.78125 -20.078125 C 0.78125 -20.523438 0.9375 -20.882812 1.25 -21.15625 C 1.5625 -21.4375 1.957031 -21.578125 2.4375 -21.578125 C 3.34375 -21.578125 4.125 -21.222656 4.78125 -20.515625 C 5.4375 -19.804688 5.765625 -18.960938 5.765625 -17.984375 C 5.765625 -16.742188 5.660156 -15.382812 5.453125 -13.90625 C 5.242188 -12.4375 5.035156 -11.007812 4.828125 -9.625 C 4.628906 -8.238281 4.53125 -7.039062 4.53125 -6.03125 C 4.53125 -4.125 5.410156 -3.171875 7.171875 -3.171875 C 8.078125 -3.171875 9.039062 -3.515625 10.0625 -4.203125 C 11.082031 -4.898438 12.007812 -5.96875 12.84375 -7.40625 C 13.675781 -8.84375 14.234375 -10.671875 14.515625 -12.890625 C 14.578125 -14.035156 14.648438 -15.15625 14.734375 -16.25 C 14.828125 -17.34375 14.890625 -18.375 14.921875 -19.34375 C 14.953125 -19.894531 15.148438 -20.3125 15.515625 -20.59375 C 15.878906 -20.875 16.269531 -21.015625 16.6875 -21.015625 C 17.144531 -21.015625 17.550781 -20.859375 17.90625 -20.546875 C 18.269531 -20.234375 18.421875 -19.742188 18.359375 -19.078125 C 18.148438 -16.335938 17.945312 -13.492188 17.75 -10.546875 C 17.5625 -7.609375 17.363281 -5.007812 17.15625 -2.75 C 17.15625 -2.6875 17.144531 -2.609375 17.125 -2.515625 C 17.113281 -2.429688 17.109375 -2.335938 17.109375 -2.234375 C 17.898438 -2.992188 18.671875 -3.9375 19.421875 -5.0625 C 20.171875 -6.195312 20.851562 -7.382812 21.46875 -8.625 C 22.09375 -9.875 22.613281 -11.035156 23.03125 -12.109375 Z M 9.5625 9.78125 C 10.570312 9.78125 11.335938 9.273438 11.859375 8.265625 C 12.378906 7.265625 12.773438 5.65625 13.046875 3.4375 C 11.453125 4.300781 10.210938 5.128906 9.328125 5.921875 C 8.453125 6.722656 8.015625 7.519531 8.015625 8.3125 C 8.015625 9.289062 8.53125 9.78125 9.5625 9.78125 Z M 9.5625 9.78125 "/></g></g></g><g fill="#000000" fill-opacity="1"><g transform="translate(175.562488, 73.375048)"><g><path d="M 22.5625 -12.109375 C 22.738281 -12.566406 22.957031 -12.890625 23.21875 -13.078125 C 23.476562 -13.265625 23.726562 -13.359375 23.96875 -13.359375 C 24.3125 -13.359375 24.601562 -13.226562 24.84375 -12.96875 C 25.09375 -12.707031 25.21875 -12.351562 25.21875 -11.90625 C 25.21875 -11.625 25.164062 -11.332031 25.0625 -11.03125 C 24.226562 -8.914062 23.070312 -7.3125 21.59375 -6.21875 C 20.125 -5.125 18.578125 -4.507812 16.953125 -4.375 C 16.046875 -2.976562 14.90625 -1.878906 13.53125 -1.078125 C 12.164062 -0.285156 10.65625 0.109375 9 0.109375 C 6.601562 0.109375 4.691406 -0.695312 3.265625 -2.3125 C 1.847656 -3.925781 1.140625 -6.101562 1.140625 -8.84375 C 1.140625 -11.164062 1.582031 -13.257812 2.46875 -15.125 C 3.351562 -17 4.539062 -18.484375 6.03125 -19.578125 C 7.519531 -20.671875 9.1875 -21.21875 11.03125 -21.21875 C 11.644531 -21.21875 12.28125 -21.140625 12.9375 -20.984375 C 13.601562 -20.828125 14.160156 -20.660156 14.609375 -20.484375 C 15.890625 -20.003906 16.953125 -19.023438 17.796875 -17.546875 C 18.648438 -16.078125 19.078125 -14.265625 19.078125 -12.109375 C 19.078125 -11.316406 19.023438 -10.535156 18.921875 -9.765625 C 18.816406 -9.003906 18.644531 -8.28125 18.40625 -7.59375 C 20.144531 -8.144531 21.53125 -9.648438 22.5625 -12.109375 Z M 14.8125 -7.4375 C 15.375 -8.820312 15.65625 -10.363281 15.65625 -12.0625 C 15.65625 -13.757812 15.410156 -15.101562 14.921875 -16.09375 C 14.441406 -17.082031 13.75 -17.578125 12.84375 -17.578125 C 11.382812 -17.578125 10.65625 -16.207031 10.65625 -13.46875 C 10.65625 -11.800781 11.0625 -10.457031 11.875 -9.4375 C 12.695312 -8.414062 13.675781 -7.75 14.8125 -7.4375 Z M 9.09375 -3.125 C 10.65625 -3.125 12.007812 -3.695312 13.15625 -4.84375 C 11.5625 -5.425781 10.226562 -6.425781 9.15625 -7.84375 C 8.082031 -9.269531 7.546875 -11.078125 7.546875 -13.265625 C 7.546875 -14.785156 7.875 -16.15625 8.53125 -17.375 C 7.25 -16.601562 6.269531 -15.421875 5.59375 -13.828125 C 4.914062 -12.234375 4.578125 -10.625 4.578125 -9 C 4.578125 -7.4375 4.929688 -6.066406 5.640625 -4.890625 C 6.347656 -3.710938 7.5 -3.125 9.09375 -3.125 Z M 9.09375 -3.125 "/></g></g></g><g fill="#000000" fill-opacity="1"><g transform="translate(196.412901, 73.375048)"><g><path d="M 24.390625 -12.109375 C 24.703125 -12.804688 25.132812 -13.15625 25.6875 -13.15625 C 26.03125 -13.15625 26.34375 -13.023438 26.625 -12.765625 C 26.90625 -12.503906 27.046875 -12.148438 27.046875 -11.703125 C 27.046875 -11.523438 26.992188 -11.300781 26.890625 -11.03125 C 25.847656 -8.25 24.898438 -6.039062 24.046875 -4.40625 C 23.203125 -2.78125 22.363281 -1.613281 21.53125 -0.90625 C 20.695312 -0.195312 19.796875 0.15625 18.828125 0.15625 C 17.859375 0.15625 16.960938 -0.234375 16.140625 -1.015625 C 15.328125 -1.796875 14.734375 -3.140625 14.359375 -5.046875 C 13.378906 -3.273438 12.253906 -1.960938 10.984375 -1.109375 C 9.722656 -0.265625 8.367188 0.15625 6.921875 0.15625 C 5.222656 0.15625 3.828125 -0.378906 2.734375 -1.453125 C 1.640625 -2.523438 1.09375 -3.945312 1.09375 -5.71875 C 1.09375 -7.070312 1.195312 -8.457031 1.40625 -9.875 C 1.613281 -11.300781 1.8125 -12.660156 2 -13.953125 C 2.1875 -15.253906 2.28125 -16.34375 2.28125 -17.21875 C 2.28125 -17.875 2.160156 -18.332031 1.921875 -18.59375 C 1.679688 -18.851562 1.429688 -19.078125 1.171875 -19.265625 C 0.910156 -19.453125 0.78125 -19.773438 0.78125 -20.234375 C 0.78125 -20.679688 0.9375 -21.039062 1.25 -21.3125 C 1.5625 -21.59375 1.957031 -21.734375 2.4375 -21.734375 C 3.34375 -21.734375 4.125 -21.378906 4.78125 -20.671875 C 5.4375 -19.960938 5.765625 -19.117188 5.765625 -18.140625 C 5.765625 -16.898438 5.660156 -15.515625 5.453125 -13.984375 C 5.242188 -12.460938 5.035156 -10.988281 4.828125 -9.5625 C 4.628906 -8.144531 4.53125 -6.929688 4.53125 -5.921875 C 4.53125 -4.015625 5.410156 -3.0625 7.171875 -3.0625 C 8.660156 -3.0625 10.097656 -3.867188 11.484375 -5.484375 C 12.878906 -7.097656 13.785156 -9.617188 14.203125 -13.046875 C 14.265625 -14.160156 14.351562 -15.257812 14.46875 -16.34375 C 14.59375 -17.4375 14.707031 -18.472656 14.8125 -19.453125 C 14.914062 -20.453125 15.507812 -20.953125 16.59375 -20.953125 C 17.070312 -20.953125 17.46875 -20.78125 17.78125 -20.4375 C 18.09375 -20.09375 18.210938 -19.660156 18.140625 -19.140625 C 17.796875 -16.953125 17.570312 -15.078125 17.46875 -13.515625 C 17.363281 -11.960938 17.3125 -10.59375 17.3125 -9.40625 C 17.3125 -7.1875 17.445312 -5.570312 17.71875 -4.5625 C 18 -3.5625 18.472656 -3.0625 19.140625 -3.0625 C 19.765625 -3.0625 20.5 -3.820312 21.34375 -5.34375 C 22.195312 -6.875 23.210938 -9.128906 24.390625 -12.109375 Z M 24.390625 -12.109375 "/></g></g></g><g fill="#000000" fill-opacity="1"><g transform="translate(219.093743, 73.375048)"><g/></g></g><g fill="#000000" fill-opacity="1"><g transform="translate(6.94922, 110.125046)"><g><path d="M 1.09375 -7.796875 L 6.140625 -7.796875 L 6.140625 -7.25 L 1.625 -7.25 L 1.625 -4.171875 L 5.15625 -4.171875 L 5.15625 -3.609375 L 1.625 -3.609375 L 1.625 0 L 1.09375 0 Z M 1.09375 -7.796875 "/></g></g></g><g fill="#000000" fill-opacity="1"><g transform="translate(14.065237, 110.125046)"><g><path d="M 7.96875 -1.90625 C 7.601562 -1.289062 7.125 -0.804688 6.53125 -0.453125 C 5.914062 -0.0976562 5.253906 0.078125 4.546875 0.078125 C 3.835938 0.078125 3.175781 -0.0976562 2.5625 -0.453125 C 1.957031 -0.804688 1.476562 -1.289062 1.125 -1.90625 C 0.769531 -2.507812 0.59375 -3.175781 0.59375 -3.90625 C 0.59375 -4.625 0.769531 -5.289062 1.125 -5.90625 C 1.476562 -6.519531 1.957031 -7.003906 2.5625 -7.359375 C 3.175781 -7.710938 3.835938 -7.890625 4.546875 -7.890625 C 5.253906 -7.890625 5.914062 -7.710938 6.53125 -7.359375 C 7.132812 -6.992188 7.613281 -6.507812 7.96875 -5.90625 C 8.320312 -5.289062 8.5 -4.625 8.5 -3.90625 C 8.5 -3.1875 8.320312 -2.519531 7.96875 -1.90625 Z M 7.484375 -5.625 C 7.171875 -6.15625 6.757812 -6.570312 6.25 -6.875 C 5.726562 -7.175781 5.160156 -7.328125 4.546875 -7.328125 C 3.929688 -7.328125 3.363281 -7.175781 2.84375 -6.875 C 2.3125 -6.5625 1.894531 -6.140625 1.59375 -5.609375 C 1.289062 -5.085938 1.140625 -4.519531 1.140625 -3.90625 C 1.140625 -3.28125 1.296875 -2.707031 1.609375 -2.1875 C 1.921875 -1.644531 2.335938 -1.222656 2.859375 -0.921875 C 3.367188 -0.617188 3.929688 -0.46875 4.546875 -0.46875 C 5.171875 -0.46875 5.738281 -0.625 6.25 -0.9375 C 6.78125 -1.238281 7.195312 -1.65625 7.5 -2.1875 C 7.789062 -2.707031 7.9375 -3.28125 7.9375 -3.90625 C 7.9375 -4.519531 7.785156 -5.09375 7.484375 -5.625 Z M 7.484375 -5.625 "/></g></g></g><g fill="#000000" fill-opacity="1"><g transform="translate(23.149258, 110.125046)"><g><path d="M 5.703125 0 L 2.453125 -3.9375 L 3.421875 -3.9375 C 4.015625 -3.9375 4.492188 -4.007812 4.859375 -4.15625 C 5.140625 -4.300781 5.378906 -4.503906 5.578125 -4.765625 C 5.773438 -5.015625 5.875 -5.296875 5.875 -5.609375 C 5.875 -5.890625 5.785156 -6.15625 5.609375 -6.40625 C 5.441406 -6.65625 5.203125 -6.859375 4.890625 -7.015625 C 4.578125 -7.179688 4.21875 -7.265625 3.8125 -7.265625 L 1.625 -7.265625 L 1.625 0 L 1.09375 0 L 1.09375 -7.796875 L 3.8125 -7.796875 C 4.1875 -7.796875 4.53125 -7.738281 4.84375 -7.625 C 5.164062 -7.507812 5.445312 -7.34375 5.6875 -7.125 C 5.914062 -6.914062 6.097656 -6.679688 6.234375 -6.421875 C 6.347656 -6.160156 6.40625 -5.890625 6.40625 -5.609375 C 6.40625 -5.179688 6.28125 -4.789062 6.03125 -4.4375 C 5.769531 -4.082031 5.453125 -3.828125 5.078125 -3.671875 C 4.847656 -3.566406 4.625 -3.5 4.40625 -3.46875 C 4.175781 -3.4375 3.90625 -3.421875 3.59375 -3.421875 L 6.421875 0 Z M 5.703125 0 "/></g></g></g><g fill="#000000" fill-opacity="1"><g transform="translate(30.56527, 110.125046)"><g/></g></g><g fill="#000000" fill-opacity="1"><g transform="translate(34.549278, 110.125046)"><g><path d="M 6.46875 -2.046875 C 6.46875 -1.753906 6.394531 -1.476562 6.25 -1.21875 C 6.101562 -0.9375 5.894531 -0.695312 5.625 -0.5 C 5.0625 -0.101562 4.410156 0.09375 3.671875 0.09375 C 3.304688 0.09375 2.953125 0.0390625 2.609375 -0.0625 C 2.273438 -0.164062 1.976562 -0.3125 1.71875 -0.5 C 1.257812 -0.84375 0.984375 -1.253906 0.890625 -1.734375 L 1.40625 -2.03125 C 1.425781 -1.59375 1.640625 -1.234375 2.046875 -0.953125 C 2.472656 -0.617188 3.015625 -0.453125 3.671875 -0.453125 C 4.085938 -0.453125 4.46875 -0.53125 4.8125 -0.6875 C 5.15625 -0.832031 5.425781 -1.023438 5.625 -1.265625 C 5.820312 -1.503906 5.921875 -1.765625 5.921875 -2.046875 C 5.921875 -2.296875 5.847656 -2.53125 5.703125 -2.75 C 5.535156 -2.96875 5.316406 -3.148438 5.046875 -3.296875 C 4.773438 -3.429688 4.300781 -3.539062 3.625 -3.625 C 3.4375 -3.644531 3.191406 -3.6875 2.890625 -3.75 C 2.585938 -3.800781 2.332031 -3.878906 2.125 -3.984375 C 1.726562 -4.171875 1.421875 -4.425781 1.203125 -4.75 C 0.972656 -5.0625 0.859375 -5.398438 0.859375 -5.765625 C 0.859375 -6.054688 0.9375 -6.332031 1.09375 -6.59375 C 1.238281 -6.863281 1.445312 -7.097656 1.71875 -7.296875 C 1.976562 -7.484375 2.273438 -7.628906 2.609375 -7.734375 C 2.953125 -7.835938 3.304688 -7.890625 3.671875 -7.890625 C 4.410156 -7.890625 5.0625 -7.691406 5.625 -7.296875 C 6.082031 -6.953125 6.351562 -6.546875 6.4375 -6.078125 L 5.921875 -5.78125 C 5.921875 -5.976562 5.867188 -6.171875 5.765625 -6.359375 C 5.648438 -6.546875 5.492188 -6.710938 5.296875 -6.859375 C 4.847656 -7.191406 4.304688 -7.359375 3.671875 -7.359375 C 3.359375 -7.359375 3.0625 -7.316406 2.78125 -7.234375 C 2.5 -7.148438 2.253906 -7.023438 2.046875 -6.859375 C 1.835938 -6.710938 1.679688 -6.546875 1.578125 -6.359375 C 1.460938 -6.171875 1.40625 -5.972656 1.40625 -5.765625 C 1.40625 -5.523438 1.5 -5.285156 1.6875 -5.046875 C 1.863281 -4.804688 2.085938 -4.613281 2.359375 -4.46875 C 2.515625 -4.394531 2.6875 -4.34375 2.875 -4.3125 C 3.039062 -4.269531 3.316406 -4.222656 3.703125 -4.171875 C 4.441406 -4.097656 4.972656 -3.96875 5.296875 -3.78125 C 5.671875 -3.570312 5.960938 -3.320312 6.171875 -3.03125 C 6.367188 -2.71875 6.46875 -2.390625 6.46875 -2.046875 Z M 6.46875 -2.046875 "/></g></g></g><g fill="#000000" fill-opacity="1"><g transform="translate(41.953296, 110.125046)"><g><path d="M 6.1875 -0.8125 C 5.894531 -0.53125 5.570312 -0.3125 5.21875 -0.15625 C 4.863281 0 4.476562 0.078125 4.0625 0.078125 C 3.675781 0.078125 3.300781 0 2.9375 -0.15625 C 2.570312 -0.3125 2.25 -0.53125 1.96875 -0.8125 C 1.6875 -1.082031 1.472656 -1.40625 1.328125 -1.78125 C 1.179688 -2.144531 1.109375 -2.53125 1.109375 -2.9375 L 1.109375 -7.796875 L 1.640625 -7.796875 L 1.640625 -2.9375 C 1.640625 -2.601562 1.707031 -2.285156 1.84375 -1.984375 C 1.957031 -1.679688 2.128906 -1.414062 2.359375 -1.1875 C 2.585938 -0.957031 2.847656 -0.78125 3.140625 -0.65625 C 3.441406 -0.53125 3.75 -0.46875 4.0625 -0.46875 C 4.738281 -0.46875 5.316406 -0.707031 5.796875 -1.1875 C 6.015625 -1.414062 6.191406 -1.679688 6.328125 -1.984375 C 6.441406 -2.285156 6.5 -2.601562 6.5 -2.9375 L 6.5 -7.796875 L 7.046875 -7.796875 L 7.046875 -2.9375 C 7.046875 -2.53125 6.972656 -2.144531 6.828125 -1.78125 C 6.671875 -1.40625 6.457031 -1.082031 6.1875 -0.8125 Z M 6.1875 -0.8125 "/></g></g></g><g fill="#000000" fill-opacity="1"><g transform="translate(50.101317, 110.125046)"><g><path d="M 1.109375 0 L 1.09375 -7.796875 L 3.875 -7.796875 C 4.332031 -7.796875 4.753906 -7.695312 5.140625 -7.5 C 5.535156 -7.300781 5.847656 -7.035156 6.078125 -6.703125 C 6.296875 -6.359375 6.40625 -5.988281 6.40625 -5.59375 C 6.40625 -5.1875 6.296875 -4.820312 6.078125 -4.5 C 5.835938 -4.15625 5.523438 -3.882812 5.140625 -3.6875 C 4.753906 -3.488281 4.332031 -3.390625 3.875 -3.390625 L 1.640625 -3.390625 L 1.640625 0 Z M 1.640625 -3.953125 L 3.875 -3.953125 C 4.238281 -3.953125 4.570312 -4.023438 4.875 -4.171875 C 5.175781 -4.316406 5.421875 -4.519531 5.609375 -4.78125 C 5.785156 -5.019531 5.875 -5.289062 5.875 -5.59375 C 5.875 -5.90625 5.785156 -6.1875 5.609375 -6.4375 C 5.421875 -6.6875 5.175781 -6.882812 4.875 -7.03125 C 4.570312 -7.175781 4.238281 -7.25 3.875 -7.25 L 1.625 -7.25 Z M 1.640625 -3.953125 "/></g></g></g><g fill="#000000" fill-opacity="1"><g transform="translate(57.241332, 110.125046)"><g><path d="M 1.109375 0 L 1.09375 -7.796875 L 3.875 -7.796875 C 4.332031 -7.796875 4.753906 -7.695312 5.140625 -7.5 C 5.535156 -7.300781 5.847656 -7.035156 6.078125 -6.703125 C 6.296875 -6.359375 6.40625 -5.988281 6.40625 -5.59375 C 6.40625 -5.1875 6.296875 -4.820312 6.078125 -4.5 C 5.835938 -4.15625 5.523438 -3.882812 5.140625 -3.6875 C 4.753906 -3.488281 4.332031 -3.390625 3.875 -3.390625 L 1.640625 -3.390625 L 1.640625 0 Z M 1.640625 -3.953125 L 3.875 -3.953125 C 4.238281 -3.953125 4.570312 -4.023438 4.875 -4.171875 C 5.175781 -4.316406 5.421875 -4.519531 5.609375 -4.78125 C 5.785156 -5.019531 5.875 -5.289062 5.875 -5.59375 C 5.875 -5.90625 5.785156 -6.1875 5.609375 -6.4375 C 5.421875 -6.6875 5.175781 -6.882812 4.875 -7.03125 C 4.570312 -7.175781 4.238281 -7.25 3.875 -7.25 L 1.625 -7.25 Z M 1.640625 -3.953125 "/></g></g></g><g fill="#000000" fill-opacity="1"><g transform="translate(64.381346, 110.125046)"><g><path d="M 7.96875 -1.90625 C 7.601562 -1.289062 7.125 -0.804688 6.53125 -0.453125 C 5.914062 -0.0976562 5.253906 0.078125 4.546875 0.078125 C 3.835938 0.078125 3.175781 -0.0976562 2.5625 -0.453125 C 1.957031 -0.804688 1.476562 -1.289062 1.125 -1.90625 C 0.769531 -2.507812 0.59375 -3.175781 0.59375 -3.90625 C 0.59375 -4.625 0.769531 -5.289062 1.125 -5.90625 C 1.476562 -6.519531 1.957031 -7.003906 2.5625 -7.359375 C 3.175781 -7.710938 3.835938 -7.890625 4.546875 -7.890625 C 5.253906 -7.890625 5.914062 -7.710938 6.53125 -7.359375 C 7.132812 -6.992188 7.613281 -6.507812 7.96875 -5.90625 C 8.320312 -5.289062 8.5 -4.625 8.5 -3.90625 C 8.5 -3.1875 8.320312 -2.519531 7.96875 -1.90625 Z M 7.484375 -5.625 C 7.171875 -6.15625 6.757812 -6.570312 6.25 -6.875 C 5.726562 -7.175781 5.160156 -7.328125 4.546875 -7.328125 C 3.929688 -7.328125 3.363281 -7.175781 2.84375 -6.875 C 2.3125 -6.5625 1.894531 -6.140625 1.59375 -5.609375 C 1.289062 -5.085938 1.140625 -4.519531 1.140625 -3.90625 C 1.140625 -3.28125 1.296875 -2.707031 1.609375 -2.1875 C 1.921875 -1.644531 2.335938 -1.222656 2.859375 -0.921875 C 3.367188 -0.617188 3.929688 -0.46875 4.546875 -0.46875 C 5.171875 -0.46875 5.738281 -0.625 6.25 -0.9375 C 6.78125 -1.238281 7.195312 -1.65625 7.5 -2.1875 C 7.789062 -2.707031 7.9375 -3.28125 7.9375 -3.90625 C 7.9375 -4.519531 7.785156 -5.09375 7.484375 -5.625 Z M 7.484375 -5.625 "/></g></g></g><g fill="#000000" fill-opacity="1"><g transform="translate(73.465368, 110.125046)"><g><path d="M 5.703125 0 L 2.453125 -3.9375 L 3.421875 -3.9375 C 4.015625 -3.9375 4.492188 -4.007812 4.859375 -4.15625 C 5.140625 -4.300781 5.378906 -4.503906 5.578125 -4.765625 C 5.773438 -5.015625 5.875 -5.296875 5.875 -5.609375 C 5.875 -5.890625 5.785156 -6.15625 5.609375 -6.40625 C 5.441406 -6.65625 5.203125 -6.859375 4.890625 -7.015625 C 4.578125 -7.179688 4.21875 -7.265625 3.8125 -7.265625 L 1.625 -7.265625 L 1.625 0 L 1.09375 0 L 1.09375 -7.796875 L 3.8125 -7.796875 C 4.1875 -7.796875 4.53125 -7.738281 4.84375 -7.625 C 5.164062 -7.507812 5.445312 -7.34375 5.6875 -7.125 C 5.914062 -6.914062 6.097656 -6.679688 6.234375 -6.421875 C 6.347656 -6.160156 6.40625 -5.890625 6.40625 -5.609375 C 6.40625 -5.179688 6.28125 -4.789062 6.03125 -4.4375 C 5.769531 -4.082031 5.453125 -3.828125 5.078125 -3.671875 C 4.847656 -3.566406 4.625 -3.5 4.40625 -3.46875 C 4.175781 -3.4375 3.90625 -3.421875 3.59375 -3.421875 L 6.421875 0 Z M 5.703125 0 "/></g></g></g><g fill="#000000" fill-opacity="1"><g transform="translate(80.881379, 110.125046)"><g><path d="M 0.640625 -7.796875 L 7.375 -7.796875 L 7.375 -7.25 L 4.296875 -7.25 L 4.296875 0 L 3.75 0 L 3.75 -7.25 L 0.640625 -7.25 Z M 0.640625 -7.796875 "/></g></g></g><g fill="#000000" fill-opacity="1"><g transform="translate(88.909398, 110.125046)"><g><path d="M 1.234375 -7.796875 L 1.78125 -7.796875 L 1.78125 0 L 1.234375 0 Z M 1.234375 -7.796875 "/></g></g></g><g fill="#000000" fill-opacity="1"><g transform="translate(91.921402, 110.125046)"><g><path d="M 1.640625 0 L 1.109375 0 L 1.109375 -7.890625 L 6.5 -1.4375 L 6.5 -7.796875 L 7.046875 -7.796875 L 7.046875 0.125 L 1.640625 -6.34375 Z M 1.640625 0 "/></g></g></g><g fill="#000000" fill-opacity="1"><g transform="translate(100.057419, 110.125046)"><g><path d="M 7.359375 0 L 4.53125 0 C 3.832031 0 3.175781 -0.175781 2.5625 -0.53125 C 1.957031 -0.882812 1.484375 -1.367188 1.140625 -1.984375 C 0.785156 -2.578125 0.609375 -3.234375 0.609375 -3.953125 C 0.609375 -4.648438 0.785156 -5.304688 1.140625 -5.921875 C 1.503906 -6.535156 1.984375 -7.019531 2.578125 -7.375 C 3.179688 -7.71875 3.832031 -7.890625 4.53125 -7.890625 C 5.082031 -7.890625 5.609375 -7.78125 6.109375 -7.5625 C 6.609375 -7.332031 7.039062 -7.019531 7.40625 -6.625 L 7.015625 -6.25 C 6.691406 -6.59375 6.3125 -6.863281 5.875 -7.0625 C 5.445312 -7.238281 5 -7.328125 4.53125 -7.328125 C 3.925781 -7.328125 3.363281 -7.175781 2.84375 -6.875 C 2.3125 -6.5625 1.898438 -6.148438 1.609375 -5.640625 C 1.304688 -5.128906 1.15625 -4.566406 1.15625 -3.953125 C 1.15625 -3.335938 1.304688 -2.769531 1.609375 -2.25 C 1.910156 -1.71875 2.328125 -1.300781 2.859375 -1 C 3.378906 -0.695312 3.9375 -0.546875 4.53125 -0.546875 L 6.796875 -0.546875 L 6.796875 -3.34375 L 4.21875 -3.34375 L 4.21875 -3.875 L 7.359375 -3.875 Z M 7.359375 0 "/></g></g></g><g fill="#000000" fill-opacity="1"><g transform="translate(108.565437, 110.125046)"><g/></g></g><g fill="#000000" fill-opacity="1"><g transform="translate(112.549445, 110.125046)"><g><path d="M 7.96875 -1.90625 C 7.601562 -1.289062 7.125 -0.804688 6.53125 -0.453125 C 5.914062 -0.0976562 5.253906 0.078125 4.546875 0.078125 C 3.835938 0.078125 3.175781 -0.0976562 2.5625 -0.453125 C 1.957031 -0.804688 1.476562 -1.289062 1.125 -1.90625 C 0.769531 -2.507812 0.59375 -3.175781 0.59375 -3.90625 C 0.59375 -4.625 0.769531 -5.289062 1.125 -5.90625 C 1.476562 -6.519531 1.957031 -7.003906 2.5625 -7.359375 C 3.175781 -7.710938 3.835938 -7.890625 4.546875 -7.890625 C 5.253906 -7.890625 5.914062 -7.710938 6.53125 -7.359375 C 7.132812 -6.992188 7.613281 -6.507812 7.96875 -5.90625 C 8.320312 -5.289062 8.5 -4.625 8.5 -3.90625 C 8.5 -3.1875 8.320312 -2.519531 7.96875 -1.90625 Z M 7.484375 -5.625 C 7.171875 -6.15625 6.757812 -6.570312 6.25 -6.875 C 5.726562 -7.175781 5.160156 -7.328125 4.546875 -7.328125 C 3.929688 -7.328125 3.363281 -7.175781 2.84375 -6.875 C 2.3125 -6.5625 1.894531 -6.140625 1.59375 -5.609375 C 1.289062 -5.085938 1.140625 -4.519531 1.140625 -3.90625 C 1.140625 -3.28125 1.296875 -2.707031 1.609375 -2.1875 C 1.921875 -1.644531 2.335938 -1.222656 2.859375 -0.921875 C 3.367188 -0.617188 3.929688 -0.46875 4.546875 -0.46875 C 5.171875 -0.46875 5.738281 -0.625 6.25 -0.9375 C 6.78125 -1.238281 7.195312 -1.65625 7.5 -2.1875 C 7.789062 -2.707031 7.9375 -3.28125 7.9375 -3.90625 C 7.9375 -4.519531 7.785156 -5.09375 7.484375 -5.625 Z M 7.484375 -5.625 "/></g></g></g><g fill="#000000" fill-opacity="1"><g transform="translate(121.633467, 110.125046)"><g><path d="M 6.1875 -0.8125 C 5.894531 -0.53125 5.570312 -0.3125 5.21875 -0.15625 C 4.863281 0 4.476562 0.078125 4.0625 0.078125 C 3.675781 0.078125 3.300781 0 2.9375 -0.15625 C 2.570312 -0.3125 2.25 -0.53125 1.96875 -0.8125 C 1.6875 -1.082031 1.472656 -1.40625 1.328125 -1.78125 C 1.179688 -2.144531 1.109375 -2.53125 1.109375 -2.9375 L 1.109375 -7.796875 L 1.640625 -7.796875 L 1.640625 -2.9375 C 1.640625 -2.601562 1.707031 -2.285156 1.84375 -1.984375 C 1.957031 -1.679688 2.128906 -1.414062 2.359375 -1.1875 C 2.585938 -0.957031 2.847656 -0.78125 3.140625 -0.65625 C 3.441406 -0.53125 3.75 -0.46875 4.0625 -0.46875 C 4.738281 -0.46875 5.316406 -0.707031 5.796875 -1.1875 C 6.015625 -1.414062 6.191406 -1.679688 6.328125 -1.984375 C 6.441406 -2.285156 6.5 -2.601562 6.5 -2.9375 L 6.5 -7.796875 L 7.046875 -7.796875 L 7.046875 -2.9375 C 7.046875 -2.53125 6.972656 -2.144531 6.828125 -1.78125 C 6.671875 -1.40625 6.457031 -1.082031 6.1875 -0.8125 Z M 6.1875 -0.8125 "/></g></g></g><g fill="#000000" fill-opacity="1"><g transform="translate(129.781488, 110.125046)"><g><path d="M 5.703125 0 L 2.453125 -3.9375 L 3.421875 -3.9375 C 4.015625 -3.9375 4.492188 -4.007812 4.859375 -4.15625 C 5.140625 -4.300781 5.378906 -4.503906 5.578125 -4.765625 C 5.773438 -5.015625 5.875 -5.296875 5.875 -5.609375 C 5.875 -5.890625 5.785156 -6.15625 5.609375 -6.40625 C 5.441406 -6.65625 5.203125 -6.859375 4.890625 -7.015625 C 4.578125 -7.179688 4.21875 -7.265625 3.8125 -7.265625 L 1.625 -7.265625 L 1.625 0 L 1.09375 0 L 1.09375 -7.796875 L 3.8125 -7.796875 C 4.1875 -7.796875 4.53125 -7.738281 4.84375 -7.625 C 5.164062 -7.507812 5.445312 -7.34375 5.6875 -7.125 C 5.914062 -6.914062 6.097656 -6.679688 6.234375 -6.421875 C 6.347656 -6.160156 6.40625 -5.890625 6.40625 -5.609375 C 6.40625 -5.179688 6.28125 -4.789062 6.03125 -4.4375 C 5.769531 -4.082031 5.453125 -3.828125 5.078125 -3.671875 C 4.847656 -3.566406 4.625 -3.5 4.40625 -3.46875 C 4.175781 -3.4375 3.90625 -3.421875 3.59375 -3.421875 L 6.421875 0 Z M 5.703125 0 "/></g></g></g><g fill="#000000" fill-opacity="1"><g transform="translate(137.1975, 110.125046)"><g/></g></g><g fill="#000000" fill-opacity="1"><g transform="translate(141.181508, 110.125046)"><g><path d="M 6.46875 -2.046875 C 6.46875 -1.753906 6.394531 -1.476562 6.25 -1.21875 C 6.101562 -0.9375 5.894531 -0.695312 5.625 -0.5 C 5.0625 -0.101562 4.410156 0.09375 3.671875 0.09375 C 3.304688 0.09375 2.953125 0.0390625 2.609375 -0.0625 C 2.273438 -0.164062 1.976562 -0.3125 1.71875 -0.5 C 1.257812 -0.84375 0.984375 -1.253906 0.890625 -1.734375 L 1.40625 -2.03125 C 1.425781 -1.59375 1.640625 -1.234375 2.046875 -0.953125 C 2.472656 -0.617188 3.015625 -0.453125 3.671875 -0.453125 C 4.085938 -0.453125 4.46875 -0.53125 4.8125 -0.6875 C 5.15625 -0.832031 5.425781 -1.023438 5.625 -1.265625 C 5.820312 -1.503906 5.921875 -1.765625 5.921875 -2.046875 C 5.921875 -2.296875 5.847656 -2.53125 5.703125 -2.75 C 5.535156 -2.96875 5.316406 -3.148438 5.046875 -3.296875 C 4.773438 -3.429688 4.300781 -3.539062 3.625 -3.625 C 3.4375 -3.644531 3.191406 -3.6875 2.890625 -3.75 C 2.585938 -3.800781 2.332031 -3.878906 2.125 -3.984375 C 1.726562 -4.171875 1.421875 -4.425781 1.203125 -4.75 C 0.972656 -5.0625 0.859375 -5.398438 0.859375 -5.765625 C 0.859375 -6.054688 0.9375 -6.332031 1.09375 -6.59375 C 1.238281 -6.863281 1.445312 -7.097656 1.71875 -7.296875 C 1.976562 -7.484375 2.273438 -7.628906 2.609375 -7.734375 C 2.953125 -7.835938 3.304688 -7.890625 3.671875 -7.890625 C 4.410156 -7.890625 5.0625 -7.691406 5.625 -7.296875 C 6.082031 -6.953125 6.351562 -6.546875 6.4375 -6.078125 L 5.921875 -5.78125 C 5.921875 -5.976562 5.867188 -6.171875 5.765625 -6.359375 C 5.648438 -6.546875 5.492188 -6.710938 5.296875 -6.859375 C 4.847656 -7.191406 4.304688 -7.359375 3.671875 -7.359375 C 3.359375 -7.359375 3.0625 -7.316406 2.78125 -7.234375 C 2.5 -7.148438 2.253906 -7.023438 2.046875 -6.859375 C 1.835938 -6.710938 1.679688 -6.546875 1.578125 -6.359375 C 1.460938 -6.171875 1.40625 -5.972656 1.40625 -5.765625 C 1.40625 -5.523438 1.5 -5.285156 1.6875 -5.046875 C 1.863281 -4.804688 2.085938 -4.613281 2.359375 -4.46875 C 2.515625 -4.394531 2.6875 -4.34375 2.875 -4.3125 C 3.039062 -4.269531 3.316406 -4.222656 3.703125 -4.171875 C 4.441406 -4.097656 4.972656 -3.96875 5.296875 -3.78125 C 5.671875 -3.570312 5.960938 -3.320312 6.171875 -3.03125 C 6.367188 -2.71875 6.46875 -2.390625 6.46875 -2.046875 Z M 6.46875 -2.046875 "/></g></g></g><g fill="#000000" fill-opacity="1"><g transform="translate(148.585526, 110.125046)"><g><path d="M 8.609375 -6.171875 L 5.140625 -1.234375 L 1.640625 -6.1875 L 1.640625 0 L 1.109375 0 L 1.109375 -7.890625 L 5.140625 -2.1875 L 9.140625 -7.890625 L 9.140625 0 L 8.609375 0 Z M 8.609375 -6.171875 "/></g></g></g><g fill="#000000" fill-opacity="1"><g transform="translate(158.83355, 110.125046)"><g><path d="M 6.28125 -1.984375 L 2.125 -1.984375 L 1.203125 0 L 0.59375 0 L 4.265625 -7.890625 L 7.734375 0 L 7.15625 0 Z M 6.03125 -2.515625 L 4.25 -6.5625 L 2.375 -2.515625 Z M 6.03125 -2.515625 "/></g></g></g><g fill="#000000" fill-opacity="1"><g transform="translate(167.173568, 110.125046)"><g><path d="M 1.09375 -7.796875 L 1.625 -7.796875 L 1.625 -0.546875 L 6.015625 -0.546875 L 6.015625 0 L 1.09375 0 Z M 1.09375 -7.796875 "/></g></g></g><g fill="#000000" fill-opacity="1"><g transform="translate(174.145583, 110.125046)"><g><path d="M 1.09375 -7.796875 L 1.625 -7.796875 L 1.625 -0.546875 L 6.015625 -0.546875 L 6.015625 0 L 1.09375 0 Z M 1.09375 -7.796875 "/></g></g></g><g fill="#000000" fill-opacity="1"><g transform="translate(181.117598, 110.125046)"><g/></g></g><g fill="#000000" fill-opacity="1"><g transform="translate(185.101607, 110.125046)"><g><path d="M 6.546875 -2.203125 C 6.546875 -1.921875 6.488281 -1.644531 6.375 -1.375 C 6.25 -1.101562 6.066406 -0.863281 5.828125 -0.65625 C 5.585938 -0.445312 5.304688 -0.289062 4.984375 -0.1875 C 4.660156 -0.0625 4.316406 0 3.953125 0 L 1.09375 0 L 1.109375 -7.796875 L 3.34375 -7.796875 C 4.0625 -7.796875 4.640625 -7.59375 5.078125 -7.1875 C 5.273438 -7 5.429688 -6.785156 5.546875 -6.546875 C 5.648438 -6.304688 5.703125 -6.0625 5.703125 -5.8125 C 5.703125 -5.507812 5.628906 -5.222656 5.484375 -4.953125 C 5.335938 -4.679688 5.15625 -4.46875 4.9375 -4.3125 L 4.828125 -4.25 C 4.972656 -4.195312 5.101562 -4.148438 5.21875 -4.109375 C 5.601562 -3.941406 5.925781 -3.6875 6.1875 -3.34375 C 6.425781 -2.988281 6.546875 -2.609375 6.546875 -2.203125 Z M 1.640625 -4.40625 L 3.3125 -4.40625 C 3.519531 -4.40625 3.695312 -4.414062 3.84375 -4.4375 C 3.988281 -4.457031 4.132812 -4.5 4.28125 -4.5625 C 4.519531 -4.664062 4.726562 -4.828125 4.90625 -5.046875 C 5.070312 -5.265625 5.15625 -5.519531 5.15625 -5.8125 C 5.15625 -6.0625 5.085938 -6.296875 4.953125 -6.515625 C 4.804688 -6.734375 4.597656 -6.910156 4.328125 -7.046875 C 4.046875 -7.179688 3.71875 -7.25 3.34375 -7.25 L 1.640625 -7.25 Z M 3.953125 -0.546875 C 4.359375 -0.546875 4.71875 -0.625 5.03125 -0.78125 C 5.34375 -0.9375 5.585938 -1.144531 5.765625 -1.40625 C 5.929688 -1.65625 6.015625 -1.921875 6.015625 -2.203125 C 6.015625 -2.503906 5.914062 -2.78125 5.71875 -3.03125 C 5.53125 -3.28125 5.296875 -3.46875 5.015625 -3.59375 C 4.628906 -3.769531 4.144531 -3.859375 3.5625 -3.859375 L 1.640625 -3.859375 L 1.640625 -0.546875 Z M 3.953125 -0.546875 "/></g></g></g><g fill="#000000" fill-opacity="1"><g transform="translate(192.325621, 110.125046)"><g><path d="M 6.1875 -0.8125 C 5.894531 -0.53125 5.570312 -0.3125 5.21875 -0.15625 C 4.863281 0 4.476562 0.078125 4.0625 0.078125 C 3.675781 0.078125 3.300781 0 2.9375 -0.15625 C 2.570312 -0.3125 2.25 -0.53125 1.96875 -0.8125 C 1.6875 -1.082031 1.472656 -1.40625 1.328125 -1.78125 C 1.179688 -2.144531 1.109375 -2.53125 1.109375 -2.9375 L 1.109375 -7.796875 L 1.640625 -7.796875 L 1.640625 -2.9375 C 1.640625 -2.601562 1.707031 -2.285156 1.84375 -1.984375 C 1.957031 -1.679688 2.128906 -1.414062 2.359375 -1.1875 C 2.585938 -0.957031 2.847656 -0.78125 3.140625 -0.65625 C 3.441406 -0.53125 3.75 -0.46875 4.0625 -0.46875 C 4.738281 -0.46875 5.316406 -0.707031 5.796875 -1.1875 C 6.015625 -1.414062 6.191406 -1.679688 6.328125 -1.984375 C 6.441406 -2.285156 6.5 -2.601562 6.5 -2.9375 L 6.5 -7.796875 L 7.046875 -7.796875 L 7.046875 -2.9375 C 7.046875 -2.53125 6.972656 -2.144531 6.828125 -1.78125 C 6.671875 -1.40625 6.457031 -1.082031 6.1875 -0.8125 Z M 6.1875 -0.8125 "/></g></g></g><g fill="#000000" fill-opacity="1"><g transform="translate(200.473653, 110.125046)"><g><path d="M 6.46875 -2.046875 C 6.46875 -1.753906 6.394531 -1.476562 6.25 -1.21875 C 6.101562 -0.9375 5.894531 -0.695312 5.625 -0.5 C 5.0625 -0.101562 4.410156 0.09375 3.671875 0.09375 C 3.304688 0.09375 2.953125 0.0390625 2.609375 -0.0625 C 2.273438 -0.164062 1.976562 -0.3125 1.71875 -0.5 C 1.257812 -0.84375 0.984375 -1.253906 0.890625 -1.734375 L 1.40625 -2.03125 C 1.425781 -1.59375 1.640625 -1.234375 2.046875 -0.953125 C 2.472656 -0.617188 3.015625 -0.453125 3.671875 -0.453125 C 4.085938 -0.453125 4.46875 -0.53125 4.8125 -0.6875 C 5.15625 -0.832031 5.425781 -1.023438 5.625 -1.265625 C 5.820312 -1.503906 5.921875 -1.765625 5.921875 -2.046875 C 5.921875 -2.296875 5.847656 -2.53125 5.703125 -2.75 C 5.535156 -2.96875 5.316406 -3.148438 5.046875 -3.296875 C 4.773438 -3.429688 4.300781 -3.539062 3.625 -3.625 C 3.4375 -3.644531 3.191406 -3.6875 2.890625 -3.75 C 2.585938 -3.800781 2.332031 -3.878906 2.125 -3.984375 C 1.726562 -4.171875 1.421875 -4.425781 1.203125 -4.75 C 0.972656 -5.0625 0.859375 -5.398438 0.859375 -5.765625 C 0.859375 -6.054688 0.9375 -6.332031 1.09375 -6.59375 C 1.238281 -6.863281 1.445312 -7.097656 1.71875 -7.296875 C 1.976562 -7.484375 2.273438 -7.628906 2.609375 -7.734375 C 2.953125 -7.835938 3.304688 -7.890625 3.671875 -7.890625 C 4.410156 -7.890625 5.0625 -7.691406 5.625 -7.296875 C 6.082031 -6.953125 6.351562 -6.546875 6.4375 -6.078125 L 5.921875 -5.78125 C 5.921875 -5.976562 5.867188 -6.171875 5.765625 -6.359375 C 5.648438 -6.546875 5.492188 -6.710938 5.296875 -6.859375 C 4.847656 -7.191406 4.304688 -7.359375 3.671875 -7.359375 C 3.359375 -7.359375 3.0625 -7.316406 2.78125 -7.234375 C 2.5 -7.148438 2.253906 -7.023438 2.046875 -6.859375 C 1.835938 -6.710938 1.679688 -6.546875 1.578125 -6.359375 C 1.460938 -6.171875 1.40625 -5.972656 1.40625 -5.765625 C 1.40625 -5.523438 1.5 -5.285156 1.6875 -5.046875 C 1.863281 -4.804688 2.085938 -4.613281 2.359375 -4.46875 C 2.515625 -4.394531 2.6875 -4.34375 2.875 -4.3125 C 3.039062 -4.269531 3.316406 -4.222656 3.703125 -4.171875 C 4.441406 -4.097656 4.972656 -3.96875 5.296875 -3.78125 C 5.671875 -3.570312 5.960938 -3.320312 6.171875 -3.03125 C 6.367188 -2.71875 6.46875 -2.390625 6.46875 -2.046875 Z M 6.46875 -2.046875 "/></g></g></g><g fill="#000000" fill-opacity="1"><g transform="translate(207.87766, 110.125046)"><g><path d="M 1.234375 -7.796875 L 1.78125 -7.796875 L 1.78125 0 L 1.234375 0 Z M 1.234375 -7.796875 "/></g></g></g><g fill="#000000" fill-opacity="1"><g transform="translate(210.889653, 110.125046)"><g><path d="M 1.640625 0 L 1.109375 0 L 1.109375 -7.890625 L 6.5 -1.4375 L 6.5 -7.796875 L 7.046875 -7.796875 L 7.046875 0.125 L 1.640625 -6.34375 Z M 1.640625 0 "/></g></g></g><g fill="#000000" fill-opacity="1"><g transform="translate(219.02567, 110.125046)"><g><path d="M 1.09375 -7.796875 L 6.140625 -7.796875 L 6.140625 -7.25 L 1.625 -7.25 L 1.625 -4.171875 L 5.140625 -4.171875 L 5.140625 -3.625 L 1.625 -3.625 L 1.625 -0.5625 L 6.140625 -0.5625 L 6.140625 0 L 1.09375 0 Z M 1.09375 -7.796875 "/></g></g></g><g fill="#000000" fill-opacity="1"><g transform="translate(226.249683, 110.125046)"><g><path d="M 6.46875 -2.046875 C 6.46875 -1.753906 6.394531 -1.476562 6.25 -1.21875 C 6.101562 -0.9375 5.894531 -0.695312 5.625 -0.5 C 5.0625 -0.101562 4.410156 0.09375 3.671875 0.09375 C 3.304688 0.09375 2.953125 0.0390625 2.609375 -0.0625 C 2.273438 -0.164062 1.976562 -0.3125 1.71875 -0.5 C 1.257812 -0.84375 0.984375 -1.253906 0.890625 -1.734375 L 1.40625 -2.03125 C 1.425781 -1.59375 1.640625 -1.234375 2.046875 -0.953125 C 2.472656 -0.617188 3.015625 -0.453125 3.671875 -0.453125 C 4.085938 -0.453125 4.46875 -0.53125 4.8125 -0.6875 C 5.15625 -0.832031 5.425781 -1.023438 5.625 -1.265625 C 5.820312 -1.503906 5.921875 -1.765625 5.921875 -2.046875 C 5.921875 -2.296875 5.847656 -2.53125 5.703125 -2.75 C 5.535156 -2.96875 5.316406 -3.148438 5.046875 -3.296875 C 4.773438 -3.429688 4.300781 -3.539062 3.625 -3.625 C 3.4375 -3.644531 3.191406 -3.6875 2.890625 -3.75 C 2.585938 -3.800781 2.332031 -3.878906 2.125 -3.984375 C 1.726562 -4.171875 1.421875 -4.425781 1.203125 -4.75 C 0.972656 -5.0625 0.859375 -5.398438 0.859375 -5.765625 C 0.859375 -6.054688 0.9375 -6.332031 1.09375 -6.59375 C 1.238281 -6.863281 1.445312 -7.097656 1.71875 -7.296875 C 1.976562 -7.484375 2.273438 -7.628906 2.609375 -7.734375 C 2.953125 -7.835938 3.304688 -7.890625 3.671875 -7.890625 C 4.410156 -7.890625 5.0625 -7.691406 5.625 -7.296875 C 6.082031 -6.953125 6.351562 -6.546875 6.4375 -6.078125 L 5.921875 -5.78125 C 5.921875 -5.976562 5.867188 -6.171875 5.765625 -6.359375 C 5.648438 -6.546875 5.492188 -6.710938 5.296875 -6.859375 C 4.847656 -7.191406 4.304688 -7.359375 3.671875 -7.359375 C 3.359375 -7.359375 3.0625 -7.316406 2.78125 -7.234375 C 2.5 -7.148438 2.253906 -7.023438 2.046875 -6.859375 C 1.835938 -6.710938 1.679688 -6.546875 1.578125 -6.359375 C 1.460938 -6.171875 1.40625 -5.972656 1.40625 -5.765625 C 1.40625 -5.523438 1.5 -5.285156 1.6875 -5.046875 C 1.863281 -4.804688 2.085938 -4.613281 2.359375 -4.46875 C 2.515625 -4.394531 2.6875 -4.34375 2.875 -4.3125 C 3.039062 -4.269531 3.316406 -4.222656 3.703125 -4.171875 C 4.441406 -4.097656 4.972656 -3.96875 5.296875 -3.78125 C 5.671875 -3.570312 5.960938 -3.320312 6.171875 -3.03125 C 6.367188 -2.71875 6.46875 -2.390625 6.46875 -2.046875 Z M 6.46875 -2.046875 "/></g></g></g><g fill="#000000" fill-opacity="1"><g transform="translate(233.65369, 110.125046)"><g><path d="M 6.46875 -2.046875 C 6.46875 -1.753906 6.394531 -1.476562 6.25 -1.21875 C 6.101562 -0.9375 5.894531 -0.695312 5.625 -0.5 C 5.0625 -0.101562 4.410156 0.09375 3.671875 0.09375 C 3.304688 0.09375 2.953125 0.0390625 2.609375 -0.0625 C 2.273438 -0.164062 1.976562 -0.3125 1.71875 -0.5 C 1.257812 -0.84375 0.984375 -1.253906 0.890625 -1.734375 L 1.40625 -2.03125 C 1.425781 -1.59375 1.640625 -1.234375 2.046875 -0.953125 C 2.472656 -0.617188 3.015625 -0.453125 3.671875 -0.453125 C 4.085938 -0.453125 4.46875 -0.53125 4.8125 -0.6875 C 5.15625 -0.832031 5.425781 -1.023438 5.625 -1.265625 C 5.820312 -1.503906 5.921875 -1.765625 5.921875 -2.046875 C 5.921875 -2.296875 5.847656 -2.53125 5.703125 -2.75 C 5.535156 -2.96875 5.316406 -3.148438 5.046875 -3.296875 C 4.773438 -3.429688 4.300781 -3.539062 3.625 -3.625 C 3.4375 -3.644531 3.191406 -3.6875 2.890625 -3.75 C 2.585938 -3.800781 2.332031 -3.878906 2.125 -3.984375 C 1.726562 -4.171875 1.421875 -4.425781 1.203125 -4.75 C 0.972656 -5.0625 0.859375 -5.398438 0.859375 -5.765625 C 0.859375 -6.054688 0.9375 -6.332031 1.09375 -6.59375 C 1.238281 -6.863281 1.445312 -7.097656 1.71875 -7.296875 C 1.976562 -7.484375 2.273438 -7.628906 2.609375 -7.734375 C 2.953125 -7.835938 3.304688 -7.890625 3.671875 -7.890625 C 4.410156 -7.890625 5.0625 -7.691406 5.625 -7.296875 C 6.082031 -6.953125 6.351562 -6.546875 6.4375 -6.078125 L 5.921875 -5.78125 C 5.921875 -5.976562 5.867188 -6.171875 5.765625 -6.359375 C 5.648438 -6.546875 5.492188 -6.710938 5.296875 -6.859375 C 4.847656 -7.191406 4.304688 -7.359375 3.671875 -7.359375 C 3.359375 -7.359375 3.0625 -7.316406 2.78125 -7.234375 C 2.5 -7.148438 2.253906 -7.023438 2.046875 -6.859375 C 1.835938 -6.710938 1.679688 -6.546875 1.578125 -6.359375 C 1.460938 -6.171875 1.40625 -5.972656 1.40625 -5.765625 C 1.40625 -5.523438 1.5 -5.285156 1.6875 -5.046875 C 1.863281 -4.804688 2.085938 -4.613281 2.359375 -4.46875 C 2.515625 -4.394531 2.6875 -4.34375 2.875 -4.3125 C 3.039062 -4.269531 3.316406 -4.222656 3.703125 -4.171875 C 4.441406 -4.097656 4.972656 -3.96875 5.296875 -3.78125 C 5.671875 -3.570312 5.960938 -3.320312 6.171875 -3.03125 C 6.367188 -2.71875 6.46875 -2.390625 6.46875 -2.046875 Z M 6.46875 -2.046875 "/></g></g></g><g fill="#000000" fill-opacity="1"><g transform="translate(241.066394, 110.125046)"><g/></g></g><path stroke-linecap="butt" transform="matrix(0.75, -0.000000000000000093, 0.000000000000000093, 0.75, 14.400002, 129.224994)" fill="none" stroke-linejoin="miter" d="M -0.0020864 0.502091 L 297.602098 0.502091 " stroke="#000000" stroke-width="1" stroke-opacity="1" stroke-miterlimit="4"/><path stroke-linecap="butt" transform="matrix(0.75, -0.000000000000000093, 0.000000000000000093, 0.75, 14.400002, 13.650002)" fill="none" stroke-linejoin="miter" d="M -0.0020864 0.497914 L 297.602098 0.497914 " stroke="#000000" stroke-width="1" stroke-opacity="1" stroke-miterlimit="4"/></svg>